<?xml version="1.0" encoding="UTF-8"?>
<svg xmlns="http://www.w3.org/2000/svg" xmlns:xlink="http://www.w3.org/1999/xlink" width="60px" height="10px" viewBox="0 0 58 10" version="1.1">
<g id="surface1">
<path style=" stroke:none;fill-rule:nonzero;fill:rgb(0%,0%,0%);fill-opacity:1;" d="M 56.882812 3.621094 L 57.925781 1.875 L 57.347656 0 L 17.484375 0 L 17.296875 1.367188 L 16.925781 0 L 7.636719 0 L 7.316406 1.289062 L 6.542969 1.289062 L 6.359375 2 L 5.335938 0 L 2.308594 0 L 0 7.460938 L 1.839844 10 L 4.863281 10 L 5.230469 8.589844 L 6.453125 8.589844 L 7.273438 10 L 16.605469 10 L 16.828125 8.363281 L 17.34375 10 L 48.527344 10 L 49.789062 7.363281 L 50.929688 7.363281 L 51.992188 5.273438 L 53.125 10 L 56.261719 10 L 58 7.457031 Z M 29.9375 5.390625 L 29.941406 4.5 L 32.625 4.5 L 32.652344 5.390625 Z M 29.9375 5.390625 "/>
<path style=" stroke:none;fill-rule:nonzero;fill:rgb(23.921569%,22.352941%,21.960784%);fill-opacity:1;" d="M 2.101562 9.480469 L 0.570312 7.363281 L 3.042969 7.363281 L 4.445312 9.480469 Z M 12.105469 7.363281 L 9.632812 7.363281 L 10.691406 9.480469 L 13.035156 9.480469 Z M 12.929688 7.363281 L 13.816406 9.480469 L 16.160156 9.480469 L 15.402344 7.363281 Z M 20.347656 7.363281 L 20.84375 9.480469 L 26.3125 9.480469 L 26.117188 7.363281 Z M 32.710938 7.363281 L 32.5625 9.480469 L 27.09375 9.480469 L 26.941406 7.363281 Z M 33.535156 7.363281 L 36.007812 7.363281 L 35.683594 9.480469 L 33.339844 9.480469 Z M 36.832031 7.363281 L 36.464844 9.480469 L 38.808594 9.480469 L 39.304688 7.363281 Z M 40.128906 7.363281 L 39.589844 9.480469 L 41.933594 9.480469 L 42.601562 7.363281 Z M 43.425781 7.363281 L 42.714844 9.480469 L 45.058594 9.480469 L 45.898438 7.363281 Z M 46.722656 7.363281 L 45.839844 9.480469 L 48.179688 9.480469 L 49.195312 7.363281 Z M 54.964844 7.363281 L 53.648438 9.480469 L 55.992188 9.480469 L 57.4375 7.363281 Z M 17.050781 7.363281 L 17.722656 9.480469 L 20.0625 9.480469 L 19.523438 7.363281 Z M 6.339844 7.363281 L 8.808594 7.363281 L 9.910156 9.480469 L 7.566406 9.480469 Z M 6.339844 7.363281 "/>
<path style=" stroke:none;fill-rule:nonzero;fill:rgb(81.568629%,77.254903%,75.294119%);fill-opacity:1;" d="M 7.050781 4.5 L 6.25 4.5 L 5.886719 5.910156 L 4.265625 5.910156 L 4.652344 4.5 L 3.851562 4.5 L 3.042969 7.363281 L 0.570312 7.363281 L 2.6875 0.519531 L 4.980469 0.519531 L 4.613281 1.808594 L 5.390625 1.808594 L 5.027344 3.132812 L 6.601562 3.132812 L 6.941406 1.808594 L 7.71875 1.808594 L 8.039062 0.519531 L 10.332031 0.519531 L 8.808594 7.363281 L 6.339844 7.363281 Z M 11.097656 0.519531 L 13.390625 0.519531 L 12.105469 7.363281 L 9.632812 7.363281 Z M 21.035156 0.519531 L 26.386719 0.519531 L 26.335938 1.808594 L 23.234375 1.808594 L 23.136719 3.132812 L 26.285156 3.132812 L 26.230469 4.5 L 23.035156 4.5 L 22.929688 5.910156 L 26.175781 5.910156 L 26.117188 7.363281 L 20.347656 7.363281 Z M 27.152344 0.519531 L 32.503906 0.519531 L 32.542969 1.808594 L 29.4375 1.808594 L 29.421875 5.910156 L 32.667969 5.910156 L 32.710938 7.363281 L 26.941406 7.363281 Z M 36.621094 4.5 L 35.820312 4.5 L 36.007812 7.363281 L 33.535156 7.363281 L 33.265625 0.519531 L 38.617188 0.519531 L 38.882812 3.132812 L 38.09375 3.132812 L 38.15625 3.8125 L 38.949219 3.8125 L 39.304688 7.363281 L 36.832031 7.363281 Z M 35.644531 1.808594 L 35.730469 3.132812 L 36.519531 3.132812 L 36.421875 1.808594 Z M 45.5 0.519531 L 50.851562 0.519531 L 51.160156 1.808594 L 48.058594 1.808594 L 48.328125 3.132812 L 51.476562 3.132812 L 51.804688 4.5 L 48.609375 4.5 L 49.195312 7.363281 L 46.722656 7.363281 Z M 53.488281 1.808594 L 51.9375 1.808594 L 51.617188 0.519531 L 56.96875 0.519531 L 57.367188 1.808594 L 55.816406 1.808594 L 57.4375 7.363281 L 54.964844 7.363281 Z M 17.34375 5.199219 L 16.539062 5.199219 L 16.738281 3.8125 L 15.945312 3.8125 L 15.402344 7.363281 L 12.929688 7.363281 L 14.152344 0.519531 L 16.449219 0.519531 L 16.25 1.808594 L 17.027344 1.808594 L 16.835938 3.132812 L 17.625 3.132812 L 17.976562 0.519531 L 20.269531 0.519531 L 19.523438 7.363281 L 17.050781 7.363281 Z M 44.734375 0.519531 L 39.382812 0.519531 L 40.128906 7.363281 L 42.601562 7.363281 L 42.308594 5.199219 L 43.113281 5.199219 L 43.425781 7.363281 L 45.898438 7.363281 Z M 42.933594 3.023438 L 43.324219 3.023438 L 43.511719 4.269531 L 42.980469 4.269531 L 42.914062 3.8125 L 42.121094 3.8125 L 42.183594 4.269531 L 41.652344 4.269531 L 41.492188 3.023438 L 41.882812 3.023438 L 41.839844 2.6875 L 40.925781 2.6875 L 40.816406 1.808594 L 41.851562 1.808594 L 41.953125 2.578125 L 42.738281 2.578125 L 42.625 1.808594 L 43.660156 1.808594 L 43.796875 2.6875 L 42.882812 2.6875 Z M 42.933594 3.023438 "/>
</g>
</svg>
